<?xml version="1.0" encoding="utf-8"?>
<svg viewBox="-375.476 53.888 1828.539 343.087" xmlns="http://www.w3.org/2000/svg">
  <path d="M 1290.5 2945 C 1286.1 2948.3 1273.2 2952 1266.6 2952 C 1261.5 2951.9 1256 2950 1251 2946.5 C 1248.8 2945 1246.4 2944 1245.6 2944.3 C 1244.8 2944.6 1243.5 2947.3 1242.6 2950.3 C 1240.6 2957.1 1237.8 2960.7 1232.6 2963.1 C 1227.3 2965.5 1221.8 2965.5 1210.1 2963 C 1204.9 2961.9 1200.5 2961 1200.2 2961 C 1199.6 2961 1200.5 2965.1 1202.4 2972 C 1206 2984.5 1203.4 2994.8 1195.2 3000.5 C 1191.1 3003.3 1190.2 3003.5 1181.7 3003.6 C 1176.6 3003.6 1172.1 3003.7 1171.5 3003.8 C 1171 3003.9 1173.3 3006.7 1176.7 3009.9 C 1183.3 3016.4 1185.9 3021.7 1188.6 3034 C 1190.8 3044.2 1190.3 3051.2 1186.5 3066.5 C 1180.4 3090.8 1178.9 3100.8 1178.3 3121.5 C 1177.5 3151.6 1181 3167.9 1192.5 3186.8 C 1195.4 3191.6 1197.6 3195.7 1197.4 3195.9 C 1196.9 3196.5 1155.7 3179 1149 3175.3 C 1138.2 3169.3 1130.8 3161 1124.5 3147.8 C 1116.7 3131.6 1113.7 3119.5 1113.8 3105 C 1113.8 3098.7 1114.5 3091.2 1115.2 3088.5 L 1116.5 3083.5 L 1123 3083 C 1130.5 3082.4 1134.5 3080.5 1138.8 3075.6 C 1145.5 3068 1145.2 3056.6 1138.2 3048.7 C 1133.6 3043.7 1129.6 3042 1122.7 3042 C 1103.8 3042 1095.5 3063.5 1108.7 3078.1 L 1112.2 3081.9 L 1110.6 3088.9 C 1108.4 3098.5 1108.6 3113.6 1110.9 3123.5 C 1112 3127.9 1114.9 3136.3 1117.4 3142.3 C 1121 3150.9 1121.5 3152.8 1120 3152 C 1116.9 3150.3 1111.8 3143.2 1103.2 3128.8 C 1090.5 3107.4 1077.7 3080.4 1076.4 3072.1 C 1075.9 3068.8 1076.1 3068.2 1080 3065.1 C 1090.5 3056.7 1092 3040.2 1083.2 3030 C 1078 3023.9 1072.9 3021.6 1064.5 3021.6 C 1056.1 3021.6 1051 3023.9 1045.8 3030 C 1034.3 3043.4 1040.6 3064.6 1057.7 3069.6 C 1060.5 3070.4 1064.6 3071 1066.6 3070.8 C 1070.9 3070.5 1069.9 3068.7 1078.1 3090.5 C 1084.4 3107 1102.1 3138.7 1110.1 3147.9 C 1114.6 3153 1114.9 3154.8 1111.7 3157.8 C 1106.8 3162.4 1091.4 3159.6 1078.5 3152 C 1069.8 3146.8 1063 3140.1 1053.4 3127.4 C 1048.6 3121.1 1044.3 3116 1043.9 3116 C 1043.4 3116 1041 3117.5 1038.5 3119.4 C 1025.3 3129.5 1003.2 3130.5 984.3 3122 C 978.4 3119.3 964.2 3110.4 954.7 3103.4 C 949.7 3099.7 948.4 3100.6 945.5 3109.8 C 942.9 3118.1 938 3126.1 933.9 3129.1 C 930.3 3131.6 916.7 3136.4 908.2 3138 C 902.7 3139.1 892.9 3139 877.5 3137.7 L 874.5 3137.5 L 874.5 3148.5 C 874.5 3158.7 874.3 3159.8 871.8 3164.2 C 866.8 3172.7 856.1 3180.4 832.1 3192.9 C 824.5 3196.9 819.5 3200.1 819.5 3201 C 819.5 3202.2 821.7 3202.6 831 3203.1 C 855.5 3204.5 863.9 3207.7 876.6 3220.4 C 886.9 3230.7 892 3240.3 892.8 3250.9 C 893.4 3260 895.1 3261.7 898 3256.1 C 901.2 3249.8 918.3 3234.5 929.5 3227.9 C 943.7 3219.6 959.5 3218.9 968.4 3226.2 C 972.5 3229.5 974.6 3233.3 978 3243 C 979.3 3246.6 981.1 3250.5 982 3251.7 L 983.8 3254 L 984.8 3251.2 C 985.4 3249.7 986.6 3245.8 987.5 3242.5 C 990 3233.4 994.9 3225.1 1001.6 3218.5 C 1008.9 3211.3 1014.4 3208.2 1035.5 3199.7 C 1056.8 3191.2 1063.6 3187.6 1075.7 3178.8 C 1088.2 3169.6 1094.4 3166.8 1103.2 3166.2 C 1113.3 3165.6 1121.3 3168.4 1135.3 3177.5 C 1145.2 3184.1 1149.8 3186.3 1169.1 3193.6 C 1181.4 3198.2 1191.6 3202.3 1191.9 3202.6 C 1192.2 3202.8 1187 3202.8 1180.5 3202.4 C 1160.9 3201.3 1136.2 3204.4 1114.5 3210.7 C 1099.1 3215.1 1083.6 3221.8 1050.5 3238.5 C 1032.9 3247.4 1012.6 3257 1005.4 3259.8 C 980 3269.8 957.2 3273.7 930.1 3272.7 C 890.9 3271.3 853 3258.6 818.3 3235.4 C 806.7 3227.6 801.2 3222.7 772.8 3195.4 C 726.8 3151 715.5 3141.3 691.8 3125.4 C 652.7 3099.2 615.4 3087 574.7 3087 C 520.3 3087 479.8 3110.9 465.1 3151.6 C 454.9 3179.8 456.6 3214 469.5 3240.5 C 477.4 3256.8 488.3 3267.7 504.5 3275.6 C 517.7 3282 527.1 3284.2 541 3284.2 C 550.5 3284.2 554.1 3283.7 561.3 3281.6 C 590.9 3272.8 608.1 3253.4 608 3229 C 607.9 3216 603.6 3205.4 594 3194.8 C 589.3 3189.6 586.1 3187.2 580.2 3184.3 C 572.7 3180.5 572.5 3180.5 560.6 3180.5 C 549.1 3180.5 548.2 3180.7 541.8 3183.7 C 530.7 3188.9 523.9 3197.5 521 3209.9 C 518.3 3221.6 522.4 3234.4 530.7 3239.9 C 535.8 3243.3 538.8 3243.8 539.7 3241.4 C 540.1 3240.4 539.2 3238.8 537.2 3237.1 C 526.9 3227.7 527.5 3209.6 538.3 3198.8 C 546.5 3190.6 561.8 3188.7 573.5 3194.5 C 582.6 3198.9 591.8 3211.8 593.8 3223 C 596.7 3239.1 587.6 3255.2 570.4 3264.2 C 560 3269.7 551.9 3271.3 538 3270.7 C 519.7 3269.9 506.3 3264.4 495 3253 C 487.1 3245.1 481.9 3235.7 478.6 3223 C 468.8 3186.6 476.3 3153.4 499.2 3131.4 C 510.6 3120.4 523.1 3114 541.3 3109.7 C 549 3108 553.7 3107.6 570 3107.6 C 582.1 3107.5 592.3 3108 597 3108.8 C 630.6 3114.8 658.8 3127.3 696 3152.5 C 722.3 3170.2 728.7 3175.4 760.5 3205.1 C 783.2 3226.2 791.7 3233.3 805.5 3242.4 C 849 3271.2 891.1 3285 935.8 3285 C 960.6 3285 974.7 3282.8 997.5 3275.2 C 1011.3 3270.7 1027.3 3263 1074.1 3238.7 C 1083.3 3233.9 1095.6 3228.2 1101.6 3225.9 C 1131.1 3214.8 1173.5 3208 1202.6 3209.7 C 1210.5 3210.2 1214.3 3211 1221.5 3213.7 C 1237 3219.6 1249.8 3222.7 1271 3225.5 C 1282.3 3227 1292.3 3228.5 1293.4 3228.9 C 1297.8 3230.5 1269.4 3241.3 1256 3243.1 C 1250.7 3243.8 1245.9 3243.7 1239.9 3242.9 L 1231.2 3241.7 L 1231.7 3235.9 C 1232.2 3230.9 1231.9 3229.5 1229.7 3225.7 C 1223.7 3215.5 1208.6 3214.7 1201.9 3224.2 C 1198.4 3229.1 1198 3238.4 1201.2 3243 C 1204.2 3247.4 1210.4 3251 1215.1 3251 C 1217 3251 1220.8 3249.9 1223.4 3248.6 C 1227.3 3246.6 1228.7 3246.4 1231.8 3247.1 C 1233.8 3247.6 1239.3 3248.4 1244 3248.8 L 1252.5 3249.7 L 1239 3256.3 C 1227.6 3261.8 1216.1 3266 1212.2 3266 C 1211.7 3266 1210.9 3264.9 1210.6 3263.6 C 1209.8 3260.4 1205.4 3255.3 1201.9 3253.5 C 1198.2 3251.5 1190.6 3251.6 1186.4 3253.6 C 1178.7 3257.3 1175.4 3269.9 1180.3 3277 C 1184.2 3282.8 1187.4 3284.5 1194.4 3284.5 C 1199.7 3284.5 1201.2 3284.1 1204.2 3281.8 C 1206.2 3280.3 1208.6 3277.3 1209.7 3275.3 C 1211.4 3271.7 1211.9 3271.4 1220.3 3269.3 C 1225.4 3268 1235.7 3263.9 1244.8 3259.6 C 1253.4 3255.6 1263.9 3250.8 1268 3249 C 1277.9 3244.7 1300.8 3233.2 1304 3231 C 1306.1 3229.5 1309 3229.2 1323.4 3229.1 C 1341.4 3229 1353.6 3227.9 1366.8 3225.3 C 1374.4 3223.9 1375.6 3223.9 1383.3 3225.3 C 1396.4 3227.9 1408.6 3229 1426.6 3229.1 C 1441.7 3229.2 1443.8 3229.4 1446.3 3231.2 C 1449.4 3233.4 1479.9 3248.3 1490 3252.5 C 1493.6 3254 1500 3257 1504.2 3259.1 C 1515.3 3264.7 1525.6 3268.6 1532.8 3270 C 1538.8 3271.2 1539.1 3271.4 1540.9 3275.5 C 1547.1 3289.5 1568.4 3287.3 1571.9 3272.2 C 1574.5 3261.2 1567.1 3252 1555.5 3252 C 1548.3 3252 1542 3256.3 1539.9 3262.7 C 1539.3 3264.5 1538.2 3266 1537.3 3266 C 1533.9 3266 1517.1 3259.6 1507.6 3254.7 L 1497.5 3249.5 L 1506 3248.8 C 1510.7 3248.4 1516.2 3247.6 1518.3 3247.1 C 1521.6 3246.3 1522.9 3246.5 1526.7 3248.6 C 1534.1 3252.5 1541.8 3251.3 1546.9 3245.5 C 1553.1 3238.4 1553 3228.8 1546.6 3222.4 C 1540.1 3215.9 1530 3215.8 1523.3 3222.3 C 1519.2 3226.2 1517.6 3230.9 1518.4 3237 L 1519 3241.7 L 1510.3 3242.9 C 1499.1 3244.4 1489.9 3243.2 1476.5 3238.7 C 1457.8 3232.3 1451.5 3228.1 1460.8 3228 C 1462.5 3228 1472.9 3226.6 1483.8 3225 C 1503.5 3222 1516.4 3218.6 1531 3212.8 C 1538.3 3209.8 1538.9 3209.7 1554.5 3209.8 C 1581 3209.9 1608.8 3214.4 1634 3222.5 C 1650.6 3227.9 1659.8 3232.1 1689.2 3247.9 C 1734.5 3272.1 1754 3279.6 1781.9 3283.4 C 1794.7 3285.2 1820.6 3285.5 1833 3284 C 1877.6 3278.4 1926.4 3256.4 1962.5 3225.5 C 1967.5 3221.3 1977.4 3212.3 1984.5 3205.6 C 2011.9 3179.8 2022.8 3170.8 2043.5 3156.5 C 2082.2 3129.8 2111.1 3116.3 2143.1 3109.8 C 2152.8 3107.9 2157.5 3107.5 2175 3107.5 C 2194 3107.6 2196.3 3107.8 2206.5 3110.3 C 2245.6 3120.1 2269 3148.2 2270.7 3187.6 C 2272.2 3220.3 2261.9 3246.9 2242.8 3259.6 C 2223.5 3272.6 2195.8 3274.7 2176 3264.8 C 2167.2 3260.4 2158.7 3252.2 2154.8 3244.2 C 2151.9 3238.3 2151.5 3236.6 2151.5 3229 C 2151.5 3221.4 2151.9 3219.7 2154.7 3214 C 2158.8 3205.8 2166.7 3196.8 2172.4 3194 C 2178.6 3191.1 2189.1 3190.3 2196.1 3192.3 C 2206.7 3195.4 2214.7 3205.5 2215.8 3217.2 C 2216.4 3224.5 2214.2 3230.8 2208.9 3236.5 C 2204.5 3241.2 2204.9 3243.6 2209.8 3242.6 C 2214.4 3241.5 2220.4 3235.7 2223 3229.8 C 2224.9 3225.4 2225.2 3223.3 2224.8 3215.9 C 2224.5 3208.7 2223.9 3206.2 2221.2 3200.7 C 2214.8 3187.7 2203.7 3181 2187.6 3180.2 C 2168.9 3179.3 2156 3186.3 2144.7 3203.5 C 2136.2 3216.5 2135.2 3235.2 2142.2 3250 C 2145.9 3257.7 2156.5 3268.8 2165.3 3273.9 C 2172.9 3278.4 2185.7 3282.6 2195.9 3284 C 2211.3 3286.1 2230 3282.2 2245.6 3273.5 C 2255.3 3268.2 2269.3 3253.9 2274.4 3244.2 C 2290.1 3214 2291.3 3173.6 2277.2 3143.8 C 2264.1 3116 2238.9 3097.6 2202.7 3089.8 C 2193.9 3087.9 2189.5 3087.6 2170.5 3087.6 C 2146.3 3087.6 2138.4 3088.6 2118.5 3094.2 C 2094.1 3101 2064.7 3116.3 2039.5 3135.3 C 2022.4 3148.3 2010.1 3159.3 1970.4 3197.5 C 1944.3 3222.7 1938.6 3227.7 1927.4 3235.2 C 1904.9 3250.2 1886.1 3259 1862.4 3265.5 C 1841.9 3271.1 1831.2 3272.5 1807.5 3272.4 C 1768.6 3272.4 1754.4 3268 1692.2 3237.2 C 1654.8 3218.6 1643.2 3213.8 1624.2 3208.9 C 1606.8 3204.4 1593.5 3202.7 1575.3 3202.6 C 1566.4 3202.5 1559.4 3202.2 1559.8 3201.9 C 1560.2 3201.6 1569.7 3197.8 1581 3193.5 C 1605 3184.4 1603.8 3185 1616.3 3176.7 C 1628.8 3168.3 1633.9 3166.5 1645.5 3166.5 C 1656.2 3166.5 1660.4 3168.3 1674.6 3178.8 C 1686.2 3187.4 1694.1 3191.5 1713 3199 C 1734.7 3207.6 1741.4 3211.3 1749 3219 C 1756.2 3226.2 1761.1 3234.9 1763.3 3244.7 C 1764.1 3248 1765.2 3251.5 1765.7 3252.5 C 1766.6 3254 1767 3253.8 1768.7 3250.9 C 1769.8 3249 1771.8 3244.4 1773 3240.7 C 1777.1 3228.1 1783.7 3222.3 1794.9 3221.3 C 1801.9 3220.6 1809.5 3222.3 1817.1 3226.1 C 1828.8 3231.9 1850.2 3250.3 1852.9 3256.7 C 1854.9 3261.6 1857 3259.9 1857 3253.4 C 1857 3242.4 1864.3 3228.5 1875.6 3218.1 C 1887 3207.7 1896.4 3204.5 1919.5 3203.1 C 1934.4 3202.3 1934.3 3201.1 1918.5 3193.1 C 1902.8 3185.3 1886.5 3174.5 1881.7 3169 C 1876.4 3162.7 1874.6 3156.1 1875.5 3145.3 L 1876.3 3136.7 L 1871.4 3137.6 C 1862.5 3139.2 1843.2 3138.7 1835.5 3136.6 C 1825.9 3134 1817.1 3129.9 1813.6 3126.4 C 1810.1 3122.8 1805.8 3114.4 1803.6 3106.7 C 1802.5 3103 1801.4 3101 1800.4 3101 C 1799.6 3101 1794.1 3104.4 1788.2 3108.6 C 1782.3 3112.7 1773.5 3118.1 1768.5 3120.5 C 1747.7 3130.6 1725.7 3130.2 1711.7 3119.5 C 1709.2 3117.6 1706.7 3116 1706.2 3116 C 1705.8 3116 1701.6 3120.9 1697.1 3127 C 1692.6 3133 1685.9 3140.6 1682.4 3143.9 C 1671.7 3153.7 1657.4 3160 1645.9 3160 C 1640.9 3160 1639.9 3159.7 1638.1 3157.4 C 1636.9 3155.9 1636 3154.4 1636 3154 C 1636 3153.7 1638.7 3149.8 1642 3145.4 C 1651.6 3132.6 1667.1 3103.7 1673.8 3086 L 1679.6 3070.5 L 1683.4 3070.8 C 1689.2 3071.3 1697.6 3068.4 1702 3064.4 C 1707.5 3059.4 1710 3053.7 1710 3046.2 C 1710 3038.8 1708.1 3033.8 1703.7 3029.2 C 1691.5 3016.5 1671.7 3019.4 1663.7 3035 C 1661.2 3039.8 1660.9 3041.3 1661.3 3047.2 C 1661.8 3055 1665 3061.4 1670.6 3065.7 C 1673.8 3068.1 1674.2 3068.8 1673.7 3072.1 C 1671.7 3086.7 1635.2 3153 1629 3153 C 1628.6 3153 1630.2 3148.3 1632.6 3142.6 C 1635.1 3136.9 1638 3128.6 1639.1 3124.3 C 1641.6 3114.5 1641.8 3098.4 1639.6 3088.6 L 1637.9 3081.6 L 1641.4 3078.1 C 1645.9 3073.5 1648 3068.3 1648 3062.3 C 1647.9 3050.4 1639.3 3042 1627.1 3042 C 1621 3042 1617.4 3043.3 1613.7 3046.8 C 1607.7 3052.4 1605.4 3060.4 1607.5 3068.2 C 1609.8 3077.2 1617.8 3082.9 1628.2 3083 L 1633.8 3083 L 1634.9 3087.9 C 1639.1 3107.5 1636 3126.9 1625.3 3149 C 1621.6 3156.5 1619.1 3160 1613.6 3165.5 C 1609.6 3169.5 1603.8 3174 1600.5 3175.7 C 1594.1 3179.1 1554.3 3196 1552.8 3196 C 1552.4 3196 1553.8 3193.1 1556 3189.6 C 1561.9 3180.3 1566.7 3169.2 1569.3 3159.3 C 1571.3 3151.4 1571.5 3148.1 1571.5 3126.5 C 1571.5 3100 1570.7 3093.8 1563.5 3065.5 C 1558.9 3047.1 1559 3041.2 1564.2 3024.5 C 1566 3018.7 1567.5 3016.4 1572.3 3011.4 C 1575.6 3008 1578.2 3004.9 1578.1 3004.4 C 1578 3003.9 1574 3003.5 1569.2 3003.5 C 1558.8 3003.5 1554 3001.5 1549.6 2995.2 C 1545.9 2990 1545.2 2983.1 1547.5 2973.5 C 1550.1 2962.2 1550.3 2961 1549.4 2961 C 1548.9 2961 1544.7 2961.9 1540 2963 C 1528.9 2965.6 1522.7 2965.5 1517.3 2962.9 C 1512.2 2960.4 1509.4 2956.9 1507.4 2950 C 1506.6 2947.2 1505.2 2944.6 1504.4 2944.3 C 1503.6 2944 1501 2945.1 1498.7 2946.8 C 1493.1 2950.8 1486.9 2952.4 1480 2951.6 C 1471.8 2950.7 1462.4 2947.5 1458.9 2944.6 C 1452.7 2939.4 1452.5 2941.6 1458.1 2952.5 C 1463.2 2962.7 1465.1 2972.8 1462.7 2978 C 1461.8 2979.9 1460.3 2982.5 1459.4 2983.7 C 1457.9 2985.8 1457.9 2986 1460.1 2986.9 C 1461.4 2987.4 1463.7 2988.1 1465.2 2988.4 C 1468.9 2989.2 1474 2993.8 1475.6 2997.7 C 1478.8 3005.3 1476.6 3017.4 1471.1 3022.4 C 1469.9 3023.5 1469 3025.2 1469 3026.3 C 1469 3027.9 1469.5 3028.1 1471.8 3027.6 C 1477.5 3026.3 1484.9 3025.8 1488.3 3026.4 C 1493.1 3027.3 1500.5 3034 1502.6 3039.5 C 1504.2 3043.8 1504.2 3051.2 1502.5 3056.6 C 1501.9 3058.7 1502.1 3058.7 1512.2 3058.6 C 1521.9 3058.5 1522.9 3058.7 1529.3 3061.7 C 1537.7 3065.7 1547.5 3075.2 1554.8 3086.3 C 1562.3 3097.7 1564.1 3104.6 1565.5 3127.5 L 1566.2 3137.5 L 1563.5 3133 C 1560.2 3127.3 1552.8 3119.8 1547 3116 C 1540.1 3111.6 1528.8 3107.2 1519.8 3105.5 C 1505.4 3102.8 1499 3095.1 1499 3080.4 C 1499 3069 1497.3 3068.4 1489.1 3076.8 C 1484.5 3081.6 1482.6 3082.9 1478.3 3083.9 C 1472.2 3085.4 1469.2 3084.2 1464 3078.4 C 1459.7 3073.5 1458.3 3069.8 1457.7 3062.2 C 1457.4 3058.7 1456.9 3055.5 1456.5 3055.2 C 1456.1 3054.8 1454.2 3056.4 1452.2 3058.7 C 1447.5 3064 1443.4 3066 1437 3066 C 1430.5 3066 1426.2 3064.2 1420.4 3058.8 C 1414.5 3053.4 1411 3046.2 1411 3039.5 C 1411 3036.7 1410.6 3033.9 1410.1 3033.1 C 1408 3029.9 1404.1 3041 1404 3050 C 1404 3055.6 1405.3 3060.5 1409.2 3069.5 C 1411.9 3075.6 1412.2 3077.1 1411.7 3082.7 C 1411.1 3088.9 1411.1 3089.1 1413.8 3090.1 C 1433.8 3097.4 1440.9 3104.4 1441 3116.7 C 1441 3119.6 1441.3 3122 1441.8 3122 C 1442.2 3122 1445 3121.1 1448 3119.9 C 1455.2 3117.1 1462.8 3117.7 1473.7 3121.9 C 1480.3 3124.5 1482.6 3126 1485.9 3129.8 L 1490 3134.5 L 1492 3132 C 1493.1 3130.6 1495.4 3127.8 1497.2 3125.6 C 1502.1 3119.5 1509.5 3116.7 1521.3 3116.2 C 1530.9 3115.8 1531.3 3115.8 1538.4 3119.3 C 1547.4 3123.8 1554.9 3131.5 1559.3 3140.7 C 1561.9 3146.3 1562.5 3148.7 1562.5 3154.6 C 1562.5 3160.8 1561.9 3163.2 1557.5 3174.1 C 1552.8 3185.8 1552.1 3186.9 1545.5 3193.2 C 1541.6 3197 1535.6 3201.5 1532 3203.4 C 1521.5 3208.8 1497.1 3216 1488 3216.3 C 1480.2 3216.6 1443 3214 1431.5 3212.4 C 1410.8 3209.5 1393.3 3201.7 1383.6 3190.9 L 1379.1 3185.9 L 1381.8 3180.2 C 1384.2 3175.2 1384.5 3173.3 1384.5 3164 C 1384.5 3154.2 1384.3 3153 1381.2 3146.6 L 1377.9 3139.6 L 1382.7 3134.8 C 1385.3 3132.1 1390.4 3128.5 1394 3126.7 C 1399.7 3123.9 1401.4 3123.5 1409.1 3123.5 C 1417.2 3123.5 1418.1 3123.7 1426.2 3127.7 C 1435.7 3132.4 1444.6 3140.3 1448 3147 C 1456.5 3163.7 1443.5 3184 1424.3 3184 C 1417.4 3184 1407.5 3178.8 1403.8 3173.2 C 1400.4 3168 1402.2 3157.6 1406.9 3155 C 1411.6 3152.6 1418 3155.2 1418 3159.5 C 1418 3164.2 1411.3 3164.9 1409.6 3160.4 C 1408.5 3157.7 1406.8 3160.3 1407.6 3163.4 C 1409 3169.3 1415.5 3170.7 1420.1 3166.1 C 1424.2 3162 1424 3157.8 1419.7 3153.5 C 1415.8 3149.6 1412.5 3148.5 1407.6 3149.4 C 1398 3151.2 1392.1 3164.2 1396.4 3174.3 C 1401.3 3186.3 1423.8 3193.2 1437.5 3187.1 C 1452 3180.7 1459.6 3163.2 1454.5 3148.1 C 1451.2 3138 1439.3 3127.7 1425.5 3123 C 1409.4 3117.5 1391.6 3121 1379.6 3132 L 1375 3136.3 L 1370.4 3132 C 1364.6 3126.6 1354.8 3122.1 1346.2 3120.8 C 1327.7 3117.9 1305.1 3129.2 1297.1 3145.2 C 1294.6 3150.1 1294 3152.6 1294 3157.6 C 1294 3183.8 1321 3198 1344.1 3184.1 C 1351.9 3179.4 1355 3174.6 1355 3167.2 C 1355 3160.6 1353.2 3156.2 1349.1 3152.7 C 1341.1 3146 1328.9 3149.7 1327.3 3159.3 C 1326.8 3162.4 1327.2 3163.3 1329.8 3166 C 1331.6 3167.8 1333.9 3169 1335.5 3169 C 1338.8 3169 1343 3164.9 1343 3161.5 C 1343 3158.6 1341.5 3158.2 1340.1 3160.9 C 1338.6 3163.7 1336 3164.3 1333.9 3162.4 C 1331.5 3160.2 1331.5 3158.5 1334 3156 C 1338.4 3151.6 1346.1 3154.9 1348.1 3162.2 C 1350.3 3170.5 1345 3177.9 1334 3182.1 C 1328 3184.4 1324 3184.5 1317.4 3182.5 C 1306.9 3179.4 1299.8 3169.7 1299.7 3158.5 C 1299.7 3150.5 1301.7 3146.2 1309 3138.5 C 1313.5 3133.9 1317.5 3131 1323.7 3127.8 C 1331.9 3123.7 1332.6 3123.5 1341.4 3123.5 C 1349.5 3123.5 1351.1 3123.8 1356 3126.4 C 1362.7 3129.9 1369.2 3135.1 1370.9 3138.3 C 1372 3140.3 1371.8 3141.2 1370.2 3144.1 C 1364.3 3154.2 1363.6 3168.2 1368.3 3180 L 1371 3186.5 L 1364.7 3192.5 C 1349.5 3207.4 1331.4 3212.7 1288 3215 C 1277.3 3215.6 1267.4 3216.3 1266 3216.5 C 1260.7 3217.6 1232.7 3210.2 1220.5 3204.5 C 1214.7 3201.8 1207.9 3196.8 1200.3 3189.6 C 1198.3 3187.8 1189.2 3166.4 1187.9 3160.4 C 1184.7 3146 1196 3126.6 1212.2 3119 C 1217.6 3116.4 1219.7 3116 1226.6 3116 C 1239.4 3116 1250.4 3120.3 1254.4 3127 C 1256.2 3130.1 1259.8 3134 1260.8 3134 C 1261.2 3134 1262.5 3132.4 1263.7 3130.5 C 1267.5 3124.7 1283.4 3118 1293.2 3118 C 1295.2 3118 1299.4 3118.9 1302.5 3120.1 C 1305.6 3121.3 1308.4 3121.9 1308.7 3121.6 C 1309 3121.3 1309.4 3118.3 1309.6 3114.9 C 1310 3104.4 1315.5 3098.5 1330.1 3092.5 L 1338.5 3089.2 L 1338.2 3083.2 C 1337.9 3078.3 1338.5 3075.9 1341.6 3068.4 C 1344.3 3061.9 1345.4 3057.5 1345.8 3052.4 C 1346.3 3044.5 1344.7 3035.8 1342.2 3033.4 C 1340 3031.2 1339 3033.2 1339 3039.9 C 1339 3046.7 1336.4 3052.3 1330.8 3057.9 C 1319.8 3068.7 1306.4 3068.9 1297.5 3058.2 C 1296 3056.5 1294.5 3055.2 1294.1 3055.5 C 1293.6 3055.7 1293 3058.9 1292.7 3062.5 C 1291.9 3070.4 1288.2 3078 1283.1 3081.9 C 1276.5 3086.9 1266.7 3084.2 1259.6 3075.6 C 1253.3 3067.9 1251 3069.6 1251 3081.9 C 1251 3092.9 1243.9 3103.1 1235.3 3104.5 C 1213 3108.3 1193.7 3119.6 1186.7 3133.1 C 1184.6 3137.2 1184 3137.9 1184 3136 C 1184 3130.9 1186.1 3110.3 1187.2 3105 C 1190.3 3088.8 1207.1 3067.9 1222.5 3060.8 C 1226.7 3058.9 1229.1 3058.5 1237.8 3058.6 L 1248.2 3058.7 L 1247.6 3056.1 C 1244.9 3044.6 1246.3 3038.7 1253.1 3031.8 C 1259.4 3025.5 1263.6 3024.9 1278.8 3027.6 C 1282.8 3028.4 1282.8 3027.3 1278.9 3022.4 C 1274.5 3017 1273 3012.9 1273 3006.7 C 1273 2997.5 1279.9 2988 1286.5 2988 C 1287.6 2988 1289.5 2987.4 1290.5 2986.6 C 1292.2 2985.3 1292.2 2985.1 1289.7 2981.8 C 1287.4 2978.9 1287 2977.3 1287 2971.8 C 1287 2963.9 1288.9 2957.1 1293 2950.7 C 1295.8 2946.2 1296.9 2942 1295.3 2942 C 1294.8 2942.1 1292.7 2943.4 1290.5 2945 Z M 1245.6 2966.2 C 1245.2 2972.4 1244.6 2979.1 1244.3 2981 L 1243.7 2984.5 L 1249.6 2979.4 C 1258.7 2971.6 1274 2960.9 1274 2962.3 C 1274 2962.6 1270.3 2965.5 1265.8 2968.8 C 1261.2 2972.2 1255.3 2976.9 1252.5 2979.4 L 1247.5 2983.9 L 1252.4 2982.4 C 1255.1 2981.7 1260.5 2981 1264.4 2981.1 L 1271.5 2981.2 L 1263.6 2982.6 C 1252.7 2984.6 1242.3 2989.7 1237 2995.7 C 1231.5 3001.9 1219.5 3019.1 1216.3 3025.4 L 1213.8 3030.3 L 1219.6 3025.1 C 1227.6 3018 1237.7 3013.1 1246.1 3012.3 C 1250.2 3012 1253.4 3012.2 1254.6 3012.8 C 1256.2 3013.8 1255.9 3013.9 1252.4 3014 C 1246 3014 1235.9 3017.6 1229.1 3022.1 C 1219.1 3028.8 1206.7 3043.3 1204.5 3051 L 1203.8 3053.5 L 1206.6 3050.8 C 1211.1 3046.6 1217.8 3044 1224 3044.1 L 1229.5 3044.1 L 1222.9 3045.8 C 1219.2 3046.8 1214.4 3048.8 1212.1 3050.3 C 1207.3 3053.5 1202.4 3059.8 1201.5 3064.1 C 1200.7 3067.5 1198.3 3069 1196.8 3066.9 C 1195.6 3065.1 1196.5 3054.8 1198.6 3046.8 C 1201.7 3034.8 1199.7 3021.9 1193.6 3015.1 L 1191.5 3012.7 L 1194.1 3014.4 C 1198.1 3016.9 1201.7 3022.8 1203.4 3029.4 C 1204.3 3032.6 1205.1 3035.5 1205.3 3035.7 C 1206.1 3036.4 1214.8 3016.3 1216.1 3011 C 1218.2 3002.1 1217.7 2990.7 1214.7 2982 C 1212.9 2976.9 1212.6 2975.1 1213.7 2976.5 C 1218.7 2982.9 1222.7 2998.2 1221.5 3006.5 L 1220.9 3010.5 L 1223.7 3007 C 1225.2 3005.1 1228.9 3000.7 1231.7 2997.3 C 1237.5 2990.5 1241.4 2981 1242.5 2971 C 1243.4 2963.1 1245 2955 1245.7 2955 C 1246 2955 1246 2960.1 1245.6 2966.2 Z M 1507.1 2966.2 C 1509.2 2983.9 1511 2988.2 1522 3001.8 L 1528.5 3009.9 L 1529.1 3000.2 C 1529.5 2994.9 1530.4 2988.6 1531.3 2986.4 C 1532.8 2982.4 1537.6 2974 1538.4 2974 C 1538.6 2974 1537.6 2976.8 1536.2 2980.2 C 1534.2 2985 1533.5 2988.8 1533.2 2996.1 C 1532.7 3007.9 1534.3 3014.8 1540.7 3027.9 L 1545.3 3037.5 L 1546 3032.5 C 1547 3025.6 1550.7 3018.6 1555.5 3015 C 1557.2 3013.7 1557.2 3013.9 1555.2 3016.7 C 1549.6 3024.6 1548.7 3034.3 1552 3048.2 C 1554.1 3057 1554.5 3064.6 1553.1 3066.9 C 1552 3068.6 1549 3067.6 1549 3065.5 C 1549 3062.8 1545.4 3056.7 1541.8 3053.4 C 1537.6 3049.4 1533.5 3047.3 1526.3 3045.6 L 1520.5 3044.2 L 1525.6 3044.1 C 1531.8 3044 1536.3 3045.4 1541.4 3049.1 C 1543.6 3050.7 1545.5 3051.8 1545.8 3051.6 C 1546 3051.3 1544.9 3048.8 1543.4 3045.9 C 1539.5 3038.9 1527.9 3026.5 1520.6 3021.8 C 1513.9 3017.5 1503.8 3014 1497.6 3013.9 C 1493.8 3013.9 1493.7 3013.8 1496 3012.8 C 1503.5 3009.8 1520.2 3015.7 1530.3 3025 L 1536.2 3030.4 L 1534.6 3026.7 C 1532.5 3021.6 1520 3003.5 1513.9 2996.6 C 1507.6 2989.6 1497.8 2984.6 1486.5 2982.6 L 1478.5 2981.2 L 1486.5 2981.1 C 1490.9 2981.1 1496.3 2981.7 1498.5 2982.5 L 1502.5 2983.9 L 1496.5 2978.5 C 1493.2 2975.5 1487.3 2970.7 1483.3 2967.8 C 1479.3 2965 1476.2 2962.4 1476.5 2962.2 C 1477.2 2961.5 1494.4 2973.7 1500.7 2979.5 L 1506.8 2985 L 1506 2981.2 C 1505.6 2979.2 1505 2972.3 1504.6 2966 C 1504 2952.7 1505.4 2952.9 1507.1 2966.2 Z M 1430.5 3077.7 C 1437.5 3082.9 1448.2 3088.8 1459.3 3093.5 C 1465.3 3096 1470.3 3098 1470.5 3098 C 1470.7 3098 1467.7 3094.7 1463.7 3090.7 C 1459.7 3086.8 1455.2 3081.1 1453.7 3078.2 C 1450.2 3071.7 1450.7 3071.5 1454.8 3077.9 C 1462.6 3089.9 1477.7 3100.2 1492.1 3103.3 L 1498.8 3104.8 L 1495.8 3100.5 C 1493.7 3097.6 1492.6 3094.7 1492.4 3091.4 L 1491.9 3086.5 L 1493.8 3091.2 C 1497.1 3099.2 1499.5 3101.7 1508 3105.6 C 1518.5 3110.5 1518.4 3112 1508 3112 C 1499.6 3112 1495.8 3113.2 1491.1 3117.4 L 1488.7 3119.5 L 1489.9 3117.2 C 1490.6 3116 1492.9 3113.8 1495.1 3112.3 L 1499.1 3109.7 L 1489.3 3106.3 C 1477 3102.2 1469.4 3101.9 1458.3 3105.5 C 1454.1 3106.8 1450.4 3107.8 1450.3 3107.6 C 1449.4 3106.8 1462.6 3101.8 1467 3101.3 L 1472.1 3100.7 L 1462.8 3096.8 C 1448.3 3090.7 1435 3086.9 1424.5 3085.6 C 1422.9 3085.5 1423.8 3085.3 1426.5 3085.2 C 1429.3 3085.1 1433.5 3085.5 1436 3086 C 1438.5 3086.4 1440.6 3086.7 1440.7 3086.6 C 1440.9 3086.5 1438 3084.3 1434.2 3081.7 C 1430.5 3079.2 1425 3074.5 1422 3071.3 L 1416.5 3065.5 L 1421.5 3070.1 C 1424.3 3072.6 1428.3 3076 1430.5 3077.7 Z M 1326.5 3073.6 C 1323.7 3076 1318.7 3079.9 1315.2 3082.2 C 1311.8 3084.4 1309.1 3086.4 1309.2 3086.6 C 1309.4 3086.7 1311.5 3086.4 1314 3086 C 1316.5 3085.5 1320.8 3085.1 1323.5 3085.2 L 1328.5 3085.2 L 1322.5 3086.1 C 1313.5 3087.4 1298.8 3091.8 1289.1 3096.1 C 1284.4 3098.2 1279.8 3100 1279 3100.1 C 1278.2 3100.1 1280.4 3100.8 1284 3101.5 C 1290.5 3102.8 1300.7 3106.7 1299.8 3107.5 C 1299.6 3107.7 1295.9 3106.8 1291.7 3105.5 C 1280.8 3102 1274 3102.2 1261.1 3106.4 L 1250.7 3109.8 L 1253.6 3111.3 C 1257 3113.1 1261.9 3118 1260.2 3118 C 1259.6 3118 1258.8 3117.5 1258.5 3117 C 1256.7 3114.1 1249.9 3112 1242.1 3112 C 1237.7 3112 1233.8 3111.5 1233.5 3111 C 1233.1 3110.4 1236.6 3108.3 1241.3 3106.1 C 1250.3 3101.9 1253.8 3098.6 1256.4 3091.4 C 1257.7 3087.8 1257.9 3087.7 1257.9 3090.3 C 1258 3093.8 1255.6 3099.8 1252.9 3102.6 L 1250.9 3104.8 L 1257.7 3103.4 C 1272.2 3100.3 1287.1 3090.2 1295.6 3077.5 C 1297.5 3074.8 1299 3073 1299 3073.6 C 1299 3076.1 1290.9 3086.9 1285 3092.4 C 1277.8 3099 1278.2 3099 1293.3 3092.4 C 1306.2 3086.8 1317.7 3079.9 1324.9 3073.4 C 1328 3070.5 1330.7 3068.4 1331 3068.7 C 1331.3 3068.9 1329.2 3071.1 1326.5 3073.6 Z M 984 3145.4 C 992.8 3150 1005.5 3153.3 1023 3155.4 C 1030.4 3156.3 1037.6 3157.3 1038.9 3157.6 C 1041.2 3158.1 1041.2 3158 1038.2 3154.5 C 1036.4 3152.6 1034.3 3149.6 1033.4 3147.8 C 1031.3 3143.8 1031.3 3136.2 1033.3 3132.4 L 1034.9 3129.5 L 1034.3 3133.6 C 1033.5 3139.7 1035.5 3144.4 1040.8 3149 C 1045.5 3153.2 1055.2 3158.3 1062.2 3160.3 C 1067.8 3162 1069.2 3164.3 1066.3 3167.1 L 1064.1 3169.3 L 1038.2 3168 L 1012.2 3166.7 L 1007.6 3169.4 C 997.4 3175.3 989.6 3185.8 982.8 3202.4 C 981.1 3206.6 979.6 3209.9 979.4 3209.7 C 978.8 3209.1 982.6 3196.7 985.7 3189.3 C 987.4 3185.3 990.9 3179.1 993.5 3175.4 L 998.3 3168.7 L 978.9 3169.3 C 965.3 3169.7 957.7 3170.3 953.5 3171.5 C 935 3176.7 919.7 3190.3 906.4 3213.8 C 900.9 3223.5 900.7 3222.5 906.1 3211.7 C 915.6 3192.8 927.2 3180.1 941.4 3172.9 L 949.5 3168.8 L 944 3169.5 C 934.7 3170.7 914 3174.9 904.5 3177.6 C 894.3 3180.5 875.9 3187.6 865.5 3192.7 C 860.8 3195 859.3 3195.4 861 3194 C 865.6 3190.3 889.4 3179.1 900.5 3175.5 C 906.6 3173.6 918.2 3170.5 926.5 3168.6 C 941.2 3165.3 941.3 3165.3 936.5 3164.6 C 926.4 3163.2 912.2 3158.8 902.3 3154 C 896.6 3151.3 892 3148.9 892 3148.6 C 892 3148.3 895.2 3149.2 899.2 3150.6 C 920.7 3157.9 960.7 3162.7 986 3160.9 C 992.3 3160.5 997.7 3160.1 998 3160 C 998.3 3159.9 996.4 3159 993.8 3158 C 980.6 3152.6 970.6 3143 959.5 3125 C 957.3 3121.5 959 3122.9 966.8 3131.1 C 974.6 3139.3 978.5 3142.5 984 3145.4 Z M 1790.9 3124.7 C 1780.5 3141.9 1769.7 3152.5 1757.2 3157.6 L 1751.9 3159.8 L 1755.7 3160.5 C 1757.8 3160.9 1766.9 3161.2 1776 3161.2 C 1801.9 3161.1 1829.8 3157.3 1849.2 3151.1 C 1854 3149.5 1858 3148.4 1858 3148.6 C 1858 3149.4 1840.4 3157.8 1835.3 3159.4 C 1832.5 3160.3 1825.3 3162.1 1819.3 3163.4 L 1808.5 3165.7 L 1813.5 3166.4 C 1822.6 3167.8 1848.5 3174.8 1857.9 3178.4 C 1867.4 3182.1 1885.1 3190.8 1888.5 3193.5 C 1890.9 3195.4 1889.8 3194.9 1873.1 3187.6 C 1854.8 3179.5 1827.4 3172.1 1806 3169.5 L 1800.5 3168.8 L 1808.8 3173 C 1824.1 3180.7 1839.5 3198.4 1846.4 3216.5 C 1848.3 3221.3 1847.5 3220.2 1840.7 3208.5 C 1833.7 3196.4 1818.4 3180.9 1808.9 3176.3 C 1797.7 3170.8 1792.4 3169.8 1771.1 3169.3 L 1751.7 3168.7 L 1755.8 3174.1 C 1761.1 3181.3 1765.2 3189.7 1768.5 3200.3 C 1771.5 3209.7 1771.4 3213.2 1768.5 3205.3 C 1762.3 3188.5 1752.9 3175.5 1742.7 3169.5 L 1737.8 3166.7 L 1711.7 3168 L 1685.7 3169.3 L 1683.9 3167.1 C 1681.5 3164.1 1682.8 3161.4 1687.2 3160.5 C 1693.3 3159.2 1704.8 3153.3 1709.3 3149.1 C 1714.7 3144.1 1716.3 3140.5 1715.9 3134.6 C 1715.4 3129.1 1716.4 3129.8 1718.1 3136.1 C 1719.2 3140.1 1719.1 3141.4 1717.7 3145.2 C 1716.7 3147.7 1714.3 3151.6 1712.3 3154 L 1708.6 3158.2 L 1711.6 3157.6 C 1713.2 3157.3 1720.1 3156.3 1727 3155.5 C 1759.5 3151.3 1771.9 3145.6 1786.2 3128.3 C 1789.5 3124.3 1792.5 3121 1792.7 3121 C 1793 3121 1792.1 3122.7 1790.9 3124.7 Z M 1377.4 3149 C 1379.6 3154.5 1379.4 3167 1377 3173.5 L 1375.2 3178.5 L 1373.4 3174.5 C 1370.1 3167.4 1371.3 3145 1375 3145 C 1375.4 3145 1376.5 3146.8 1377.4 3149 Z M 1392.3 3207 C 1394.9 3208.4 1397 3209.7 1397 3210 C 1397 3210.4 1394.2 3211.2 1390.8 3211.8 C 1387.3 3212.5 1382.4 3213.8 1379.8 3214.6 C 1375.5 3216 1374.5 3216 1370.3 3214.6 C 1367.6 3213.8 1362.7 3212.5 1359.3 3211.8 C 1355.8 3211.2 1353 3210.4 1353 3210 C 1353 3209.7 1355.7 3208 1358.9 3206.1 C 1362.1 3204.3 1367.1 3200.5 1369.9 3197.6 L 1375 3192.5 L 1381.3 3198.5 C 1384.7 3201.8 1389.7 3205.6 1392.3 3207 Z M 1343.6 3216.6 C 1354.4 3218.7 1355.3 3219.2 1349.5 3220.1 C 1342.9 3221.1 1306.6 3221.1 1301.5 3220.1 C 1298.3 3219.5 1299.8 3219.2 1309.5 3218.6 C 1318.8 3218 1334.7 3215.9 1335.6 3215.1 C 1335.7 3215.1 1339.3 3215.7 1343.6 3216.6 Z M 1423.9 3216.9 C 1427.4 3217.5 1435.5 3218.3 1441.9 3218.7 C 1458.7 3219.7 1450 3220.9 1425 3220.8 C 1405.7 3220.8 1394.1 3219.9 1397 3218.7 C 1400.2 3217.4 1412.6 3215.2 1415 3215.6 C 1416.4 3215.8 1420.4 3216.4 1423.9 3216.9 Z" stroke="none" transform="matrix(1, 0, 0, 1, -833.962952, -2888.025635)" style="fill: rgb(63, 61, 86);"/>
</svg>