<?xml version="1.0" encoding="utf-8"?>
<svg viewBox="-376.613 115.35 1830.811 269.3" xmlns="http://www.w3.org/2000/svg">
  <g>
    <path d="M 35.256 116.15 C -190.544 116.65 -375.644 117.45 -376.144 117.85 C -376.644 118.35 -376.744 119.45 -376.444 120.25 C -375.844 121.75 -341.144 121.85 -9.244 121.85 C 192.356 121.85 357.256 122.05 357.256 122.25 C 357.256 122.45 356.356 124.55 355.256 126.95 C 351.756 134.85 353.156 143.65 359.356 152.35 C 365.556 160.95 375.856 166.95 417.856 186.35 C 441.356 197.15 455.556 204.55 468.756 212.65 C 497.756 230.65 518.956 252.65 529.856 276.35 C 533.756 284.85 538.156 300.75 538.356 307.25 C 538.556 311.25 538.556 311.25 539.456 305.85 C 545.956 268.85 565.856 241.25 603.756 216.25 C 617.856 206.95 633.256 198.95 668.856 182.25 C 699.956 167.75 709.856 162.15 715.856 155.65 C 724.456 146.35 727.056 134.85 722.456 126.15 L 720.256 121.85 L 1086.156 121.65 C 1381.556 121.35 1452.356 121.15 1453.456 120.05 C 1454.356 119.15 1454.456 118.35 1453.656 117.05 C 1452.556 115.45 1424.456 115.35 949.156 115.35 C 672.256 115.35 261.056 115.75 35.256 116.15 Z M 432.556 125.55 C 430.056 131.55 430.456 139.65 433.656 146.15 C 438.256 155.55 445.556 161.35 466.456 171.95 C 498.556 188.25 516.056 201.95 526.756 219.15 C 531.756 227.25 538.256 244.15 538.256 249.15 C 538.256 253.75 539.956 251.35 540.556 245.85 C 540.856 243.05 542.656 237.05 544.556 232.45 C 554.456 208.25 573.656 190.95 611.556 171.95 C 620.556 167.45 630.556 161.65 633.856 159.05 C 646.056 149.25 650.156 135.95 644.756 123.55 C 644.056 121.95 645.656 121.85 669.656 121.85 L 695.356 121.85 L 693.756 124.85 C 690.656 130.85 693.056 140.35 698.856 144.55 L 701.456 146.55 L 693.656 151.55 C 681.356 159.35 671.856 164.55 642.756 179.15 C 603.856 198.65 588.656 208.25 571.756 224.05 C 557.656 237.25 544.956 257.45 540.856 273.15 C 539.256 279.45 538.256 281.45 538.256 278.15 C 538.256 275.15 533.956 263.15 530.256 255.85 C 524.956 245.35 520.356 238.95 510.756 228.95 C 493.256 210.75 478.556 200.95 436.256 179.55 C 421.156 171.95 405.356 163.85 401.256 161.55 C 392.256 156.65 377.256 147.15 377.256 146.35 C 377.256 145.95 378.556 144.65 380.156 143.25 C 381.756 141.95 383.856 138.75 384.856 136.25 C 386.556 131.85 386.356 129.65 383.656 123.05 C 383.156 122.15 388.556 121.85 408.656 121.85 L 434.156 121.85 L 432.556 125.55 Z M 490.256 122.15 C 490.256 122.25 489.356 124.15 488.256 126.35 C 483.456 135.65 486.956 142.65 504.256 158.85 C 525.956 179.15 535.356 195.15 536.856 214.35 C 537.156 218.15 537.656 222.95 537.956 224.85 C 538.556 228.15 538.556 228.25 539.256 225.85 C 539.756 224.45 540.056 220.85 540.156 217.75 C 540.356 205.95 546.456 189.45 554.756 178.25 C 556.756 175.55 565.056 166.85 573.156 158.85 C 584.956 147.35 588.356 143.35 589.756 139.65 C 591.856 134.05 591.356 128.75 588.256 124.65 L 586.156 121.85 L 601.556 121.85 L 616.956 121.85 L 616.456 126.65 C 615.656 135.05 620.556 140.85 628.456 140.85 L 631.756 140.95 L 628.256 143.85 C 626.356 145.45 615.956 152.05 605.256 158.45 C 582.656 172.05 573.656 178.55 565.856 186.95 C 554.756 198.95 545.256 216.15 541.456 231.15 C 540.356 235.45 539.156 239.25 538.956 239.55 C 538.656 239.75 538.156 238.05 537.756 235.65 C 536.156 226.45 528.556 208.55 521.956 198.85 C 517.856 192.85 506.056 180.65 499.156 175.25 C 496.056 172.85 485.056 165.85 474.656 159.55 C 454.856 147.65 447.356 142.75 447.256 141.75 C 447.256 141.35 449.056 140.85 451.356 140.55 C 458.456 139.65 463.156 132.65 461.856 125.25 L 461.156 121.85 L 475.756 121.85 C 483.756 121.85 490.256 121.95 490.256 122.15 Z M 565.756 124.85 C 562.356 131.45 564.756 139.15 571.156 141.85 L 574.156 143.05 L 566.856 148.95 C 552.856 160.15 545.156 169.95 540.756 182.15 L 538.556 188.15 L 536.756 182.65 C 533.156 171.05 525.556 161.15 512.056 150.25 C 508.056 147.05 504.356 144.15 503.856 143.75 C 503.356 143.35 504.556 142.35 506.556 141.45 C 512.656 138.95 515.056 131.15 511.756 124.85 L 510.156 121.85 L 538.756 121.85 L 567.356 121.85 L 565.756 124.85 Z" stroke="none" style="fill: rgb(63, 61, 86);"/>
    <path d="M 53.856 144.15 C 52.256 145.35 52.156 146.25 53.256 155.65 C 55.056 171.75 58.956 183.65 64.456 189.55 L 66.556 191.75 L 59.156 192.05 L 51.756 192.35 L 51.856 196.45 C 52.056 209.15 67.456 225.85 85.956 233.45 C 89.256 234.75 90.856 235.85 89.656 235.85 C 85.656 235.85 73.856 231.75 62.256 226.35 C 48.556 219.85 37.556 216.85 27.656 216.85 C 20.256 216.85 18.556 217.85 19.856 221.35 C 20.656 223.25 20.756 223.25 13.956 220.85 C 2.056 216.65 -20.044 215.85 -21.444 219.55 C -22.244 221.55 -18.644 228.75 -14.744 233.25 L -11.644 236.75 L -14.444 237.35 C -15.944 237.75 -18.244 238.15 -19.544 238.45 C -23.244 239.15 -23.144 241.35 -19.344 247.15 C -11.144 259.55 -3.544 265.85 8.556 270.55 L 14.756 272.95 L -2.244 272.45 C -26.544 271.75 -45.044 266.95 -61.544 256.95 C -71.544 250.95 -74.844 252.65 -73.444 262.95 L -72.944 266.95 L -76.044 264.35 C -83.744 258.15 -96.344 252.15 -103.944 251.15 C -109.444 250.35 -109.744 252.45 -105.244 261.65 C -100.644 270.95 -90.044 282.05 -81.744 286.25 L -76.244 289.05 L -94.744 288.55 C -125.144 287.75 -143.644 283.15 -169.244 270.05 C -189.344 259.65 -198.044 249.75 -201.644 233.05 C -203.244 225.45 -203.044 212.05 -201.244 206.75 C -197.944 197.05 -189.444 190.75 -179.744 190.65 C -173.544 190.65 -169.744 193.05 -163.644 200.65 C -157.844 207.85 -153.644 210.25 -146.944 210.25 L -141.544 210.25 L -145.044 213.45 C -147.344 215.55 -151.044 217.45 -155.644 218.85 C -159.544 219.95 -163.644 221.95 -164.744 223.05 C -171.544 230.35 -160.244 238.85 -143.844 238.85 C -117.644 238.75 -97.444 218.05 -101.644 195.65 C -104.344 180.95 -114.444 170.85 -132.144 165.25 C -144.044 161.45 -163.944 160.75 -175.744 163.75 C -197.444 169.15 -211.944 181.45 -218.544 200.25 C -222.144 210.35 -222.144 225.95 -218.544 237.05 C -214.844 248.25 -209.444 257.15 -200.844 266.15 C -179.944 287.95 -150.244 298.95 -107.544 300.55 L -90.844 301.15 L -99.244 307.05 C -108.944 313.85 -109.944 316.05 -103.944 317.85 C -97.744 319.75 -83.344 320.25 -75.044 318.85 C -60.644 316.55 -42.844 309.15 -16.944 294.85 L -7.644 289.65 L -12.244 296.45 C -17.644 304.55 -19.044 308.75 -17.544 312.95 C -16.244 316.65 -12.844 317.55 -7.744 315.55 L -3.944 314.05 L -4.044 321.55 C -4.344 332.75 -2.244 333.55 12.256 327.35 C 24.556 322.15 30.056 318.85 36.156 313.25 C 41.356 308.45 42.356 307.95 42.756 309.45 C 44.056 313.75 46.856 318.35 48.356 318.65 C 49.456 318.85 52.456 315.15 57.756 307.25 C 66.156 294.75 81.556 277.85 93.956 267.75 C 101.756 261.35 115.356 251.65 115.956 252.15 C 116.056 252.35 114.856 255.65 113.256 259.45 C 107.856 272.05 109.956 278.65 119.156 277.55 C 121.656 277.25 124.656 276.75 125.756 276.35 C 127.656 275.75 127.756 276.25 127.856 287.05 C 128.056 300.15 129.856 308.15 132.556 308.65 C 133.656 308.85 135.656 307.95 137.056 306.55 C 138.556 305.15 142.256 302.55 145.256 300.75 C 152.656 296.45 156.756 292.45 161.356 285.45 L 165.256 279.65 L 166.256 282.45 C 167.756 286.25 170.156 288.85 172.156 288.75 C 173.156 288.75 175.856 284.35 179.756 276.65 C 187.056 261.75 196.956 246.65 205.256 237.55 C 212.256 229.95 231.156 215.25 242.956 208.35 C 266.756 194.35 287.056 188.15 314.756 186.35 C 331.156 185.35 358.756 188.15 377.056 192.85 C 385.556 194.95 387.856 196.45 381.256 195.45 C 374.456 194.45 353.356 196.65 342.456 199.45 C 311.656 207.35 286.656 229.15 277.856 255.85 C 274.556 265.95 272.856 278.25 273.756 286.85 C 277.456 325.55 291.356 345.35 322.256 356.05 C 331.356 359.15 332.456 359.25 346.756 359.35 C 360.656 359.35 362.356 359.15 369.956 356.55 C 399.456 346.45 417.356 319.05 413.456 289.95 C 410.756 269.75 398.056 255.75 378.956 251.85 C 371.156 250.25 364.556 251.35 358.056 255.15 C 341.956 264.75 339.956 288.45 354.056 300.95 C 359.156 305.35 361.156 304.95 358.656 299.95 C 356.056 294.75 357.156 285.85 360.856 281.15 C 365.256 275.75 368.056 273.95 374.456 272.65 C 388.856 269.65 401.356 280.25 404.156 297.75 C 407.856 320.45 388.456 345.15 362.156 351.35 C 353.056 353.45 339.256 353.25 329.656 350.85 C 320.056 348.45 307.356 342.25 301.156 336.85 C 291.356 328.55 284.256 313.85 281.756 297.05 C 278.856 277.95 280.656 263.85 287.956 248.85 C 291.756 240.95 293.856 238.15 301.156 230.85 C 313.456 218.75 326.956 211.25 346.056 206.15 C 354.856 203.75 357.456 203.45 375.256 203.45 C 392.156 203.35 396.156 203.65 405.156 205.65 C 431.256 211.55 455.356 223.55 478.956 242.55 C 505.056 263.55 517.156 285.05 529.756 333.35 C 534.656 352.15 536.256 361.75 536.256 372.85 C 536.256 380.15 536.656 382.95 537.756 383.85 C 540.356 386.05 541.256 383.85 541.256 375.55 C 541.256 360.45 546.456 336.55 555.856 307.75 C 565.656 277.85 577.656 259.85 600.256 241.55 C 631.856 216.05 666.556 202.85 702.256 202.85 C 750.156 202.85 788.056 227.95 795.856 264.85 C 797.856 274.35 797.256 296.25 794.756 305.85 C 791.756 317.35 786.656 326.65 779.356 333.95 C 771.756 341.45 765.056 345.55 753.756 349.45 C 746.556 352.05 744.456 352.25 731.756 352.35 C 719.756 352.35 716.856 352.05 711.256 350.05 C 693.356 343.85 680.156 331.05 675.256 315.15 C 672.756 306.95 672.756 299.75 675.256 291.75 C 677.556 284.15 681.656 278.85 688.056 275.05 C 691.956 272.85 693.856 272.35 699.256 272.45 C 710.356 272.55 717.656 278.05 720.356 288.05 C 721.456 292.15 721.456 293.55 719.956 298.05 C 719.056 300.95 718.656 303.65 719.056 304.05 C 720.556 305.55 727.156 298.75 730.156 292.65 C 738.556 275.85 729.256 255.45 711.556 251.85 C 700.556 249.55 687.256 253.95 677.656 263.05 C 667.556 272.55 663.656 283.75 664.556 300.85 C 665.756 324.45 677.456 341.85 699.556 353.05 C 729.356 368.05 773.356 357.45 790.856 331.15 C 805.056 309.75 808.356 274.55 798.356 250.65 C 787.756 225.55 763.156 205.95 733.056 198.85 C 722.856 196.45 703.956 194.65 696.956 195.35 C 692.656 195.75 692.156 195.75 694.256 194.85 C 698.556 192.95 712.256 190.05 724.256 188.45 C 757.056 184.15 783.556 186.15 806.256 194.55 C 828.556 202.85 854.256 219.05 870.156 234.95 C 880.656 245.45 893.356 264.65 901.356 282.45 C 904.956 290.35 907.356 290.75 910.756 284.25 L 912.956 280.05 L 917.156 286.35 C 921.256 292.75 926.056 297.25 931.856 300.15 C 933.556 301.05 937.056 303.35 939.656 305.35 C 942.156 307.25 944.956 308.85 945.756 308.85 C 948.156 308.85 949.656 301.05 949.656 288.05 L 949.756 275.75 L 952.256 276.25 C 962.556 278.65 965.456 278.15 967.256 273.95 C 968.256 271.55 968.156 269.95 966.756 265.25 C 965.856 262.05 964.156 257.75 963.156 255.65 C 962.056 253.55 961.556 251.85 961.956 251.85 C 962.456 251.85 966.756 254.75 971.656 258.25 C 992.656 273.35 1009.656 290.65 1021.356 308.95 C 1028.956 320.65 1030.556 321.25 1033.756 313.25 L 1035.856 308.15 L 1040.256 312.15 C 1047.056 318.15 1055.156 323.15 1064.156 326.75 C 1076.356 331.65 1077.756 331.95 1080.256 330.15 C 1082.256 328.75 1082.456 327.85 1082.056 321.25 C 1081.856 317.15 1081.956 313.85 1082.256 313.85 C 1082.556 313.95 1083.856 314.55 1085.256 315.35 C 1089.056 317.45 1092.856 317.25 1094.656 314.65 C 1097.756 310.25 1095.756 303.55 1088.956 294.55 C 1086.956 291.95 1085.456 289.85 1085.756 289.85 C 1086.056 289.85 1092.856 293.45 1100.856 297.85 C 1128.556 312.95 1143.556 318.55 1160.256 319.55 C 1170.856 320.15 1183.456 318.55 1185.356 316.25 C 1186.956 314.35 1184.856 312.05 1175.656 305.95 L 1168.556 301.15 L 1185.156 300.55 C 1229.856 299.05 1262.456 286.25 1282.556 262.35 C 1289.256 254.35 1295.456 242.25 1297.656 232.85 C 1299.456 225.15 1299.656 213.05 1298.156 205.65 C 1293.956 185.35 1275.656 168.45 1252.556 163.25 C 1241.956 160.95 1221.556 161.75 1211.756 164.85 C 1196.856 169.55 1186.456 177.45 1182.156 187.15 C 1178.856 194.45 1178.756 208.15 1181.956 215.05 C 1184.656 220.85 1192.256 229.15 1198.056 232.55 C 1215.256 242.65 1244.556 239.75 1244.556 227.95 C 1244.556 223.45 1241.656 220.95 1233.756 218.75 C 1223.956 216.05 1215.256 208.85 1223.656 210.35 C 1229.056 211.45 1234.956 208.15 1241.756 200.45 C 1244.956 196.75 1248.956 193.05 1250.556 192.15 C 1258.256 188.15 1270.656 192.25 1276.256 200.65 C 1284.056 212.45 1282.256 235.75 1272.356 250.45 C 1265.856 260.05 1254.456 267.75 1232.956 276.85 C 1214.456 284.65 1191.656 288.85 1167.956 288.85 L 1154.756 288.75 L 1160.756 285.65 C 1169.456 281.25 1177.856 272.15 1183.156 261.55 C 1188.556 250.95 1188.156 249.85 1179.756 251.55 C 1172.556 253.15 1162.656 257.85 1156.256 262.95 L 1151.056 267.05 L 1151.756 262.15 C 1152.256 258.05 1152.056 256.85 1150.356 254.75 L 1148.356 252.35 L 1143.056 255.25 C 1119.856 268.05 1106.056 271.75 1079.756 272.45 L 1062.756 272.85 L 1069.756 270.25 C 1073.556 268.75 1078.256 266.55 1080.256 265.35 C 1084.856 262.45 1094.156 252.35 1098.056 245.95 C 1100.856 241.45 1101.056 240.75 1099.656 239.35 C 1098.756 238.55 1096.656 237.85 1094.856 237.85 C 1090.256 237.85 1089.956 237.05 1093.156 232.95 C 1097.056 227.95 1100.356 221.25 1099.656 219.55 C 1098.256 215.95 1074.556 216.85 1063.756 220.95 C 1061.056 221.95 1058.656 222.85 1058.556 222.85 C 1058.456 222.85 1058.256 221.65 1058.056 220.05 C 1057.756 217.45 1057.556 217.35 1050.356 217.05 C 1040.556 216.65 1030.656 219.25 1016.256 226.15 C 1004.056 231.95 997.256 234.35 990.756 235.35 C 987.156 235.95 987.456 235.65 993.456 233.05 C 1007.456 226.85 1018.856 216.45 1023.756 205.35 C 1028.856 193.75 1028.156 191.85 1018.556 191.85 L 1012.156 191.85 L 1014.256 188.95 C 1015.356 187.25 1017.656 183.15 1019.256 179.65 C 1023.856 169.75 1027.156 144.65 1024.056 143.55 C 1021.356 142.65 997.056 156.25 983.456 166.35 C 980.056 168.85 977.056 170.85 976.756 170.85 C 976.456 170.85 976.256 169.25 976.256 167.35 C 976.256 162.85 973.556 156.05 971.156 154.85 C 967.456 152.85 958.556 158.85 951.556 167.95 C 949.556 170.65 947.556 172.85 947.256 172.85 C 946.956 172.85 946.056 171.35 945.456 169.45 C 943.656 164.45 940.456 160.85 937.856 160.85 C 934.256 160.85 926.456 166.45 916.456 176.05 C 909.456 182.75 905.456 185.75 899.956 188.35 C 892.156 192.05 880.156 194.85 872.356 194.85 C 866.256 194.85 847.156 191.65 837.156 188.95 C 800.756 179.05 738.356 176.95 703.456 184.35 C 690.056 187.15 675.456 192.75 668.156 197.95 C 666.656 199.05 661.256 201.25 656.156 202.85 C 622.856 213.75 584.856 240.35 568.556 264.35 C 557.456 280.85 547.556 307.25 540.656 339.35 L 538.956 347.35 L 536.656 336.45 C 530.356 306.65 520.556 280.85 509.456 264.45 C 492.856 240.05 457.156 214.75 423.756 203.55 C 418.256 201.75 411.756 199.05 409.256 197.65 C 395.956 189.85 381.956 185.15 362.756 182.25 C 353.156 180.75 344.856 180.35 320.756 180.35 C 283.256 180.35 272.256 181.65 234.756 190.35 C 209.856 196.05 197.256 195.95 181.256 189.75 C 173.956 186.95 171.956 185.55 162.356 176.45 C 151.356 166.05 142.856 160.45 139.056 161.05 C 137.656 161.25 135.856 163.25 133.856 167.05 L 130.656 172.65 L 123.856 165.25 C 116.156 156.75 110.356 153.15 107.256 154.85 C 104.656 156.25 102.556 160.35 101.756 165.95 L 101.056 170.55 L 87.956 161.85 C 80.656 156.95 70.456 150.75 65.156 147.95 C 56.956 143.55 55.356 143.05 53.856 144.15 Z" stroke="none" style="fill: rgb(63, 61, 86);"/>
  </g>
</svg>